<svg width="1440" height="900" xmlns="http://www.w3.org/2000/svg"><path d="M754,618L788,714L917,549Z" fill="rgb(124,124,124)" stroke="rgb(124,124,124)" stroke-width="1.51"></path><path d="M788,714L975,579L917,549Z" fill="rgb(128,128,128)" stroke="rgb(128,128,128)" stroke-width="1.51"></path><path d="M788,714L876,786L975,579Z" fill="rgb(136,136,136)" stroke="rgb(136,136,136)" stroke-width="1.51"></path><path d="M917,549L869,426L754,618Z" fill="rgb(115,115,115)" stroke="rgb(115,115,115)" stroke-width="1.51"></path><path d="M1099,373L869,426L917,549Z" fill="rgb(114,114,114)" stroke="rgb(114,114,114)" stroke-width="1.51"></path><path d="M876,786L1093,747L975,579Z" fill="rgb(146,146,146)" stroke="rgb(146,146,146)" stroke-width="1.51"></path><path d="M975,579L1099,373L917,549Z" fill="rgb(122,122,122)" stroke="rgb(122,122,122)" stroke-width="1.51"></path><path d="M869,426L674,415L754,618Z" fill="rgb(103,103,103)" stroke="rgb(103,103,103)" stroke-width="1.51"></path><path d="M754,618L561,709L788,714Z" fill="rgb(122,122,122)" stroke="rgb(122,122,122)" stroke-width="1.51"></path><path d="M525,531L561,709L754,618Z" fill="rgb(113,113,113)" stroke="rgb(113,113,113)" stroke-width="1.51"></path><path d="M788,714L643,999L876,786Z" fill="rgb(144,144,144)" stroke="rgb(144,144,144)" stroke-width="1.51"></path><path d="M674,415L525,531L754,618Z" fill="rgb(103,103,103)" stroke="rgb(103,103,103)" stroke-width="1.51"></path><path d="M1164,415L1099,373L975,579Z" fill="rgb(123,123,123)" stroke="rgb(123,123,123)" stroke-width="1.51"></path><path d="M869,426L686,291L674,415Z" fill="rgb(95,95,95)" stroke="rgb(95,95,95)" stroke-width="1.51"></path><path d="M1099,373L913,280L869,426Z" fill="rgb(111,111,111)" stroke="rgb(111,111,111)" stroke-width="1.51"></path><path d="M1093,747L1219,594L975,579Z" fill="rgb(146,146,146)" stroke="rgb(146,146,146)" stroke-width="1.51"></path><path d="M876,786L1041,974L1093,747Z" fill="rgb(163,163,163)" stroke="rgb(163,163,163)" stroke-width="1.51"></path><path d="M1093,747L1242,731L1219,594Z" fill="rgb(159,159,159)" stroke="rgb(159,159,159)" stroke-width="1.51"></path><path d="M643,999L931,999L876,786Z" fill="rgb(155,155,155)" stroke="rgb(155,155,155)" stroke-width="1.51"></path><path d="M1219,594L1164,415L975,579Z" fill="rgb(135,135,135)" stroke="rgb(135,135,135)" stroke-width="1.51"></path><path d="M913,280L686,291L869,426Z" fill="rgb(99,99,99)" stroke="rgb(99,99,99)" stroke-width="1.51"></path><path d="M674,415L492,428L525,531Z" fill="rgb(93,93,93)" stroke="rgb(93,93,93)" stroke-width="1.51"></path><path d="M931,999L1041,974L876,786Z" fill="rgb(166,166,166)" stroke="rgb(166,166,166)" stroke-width="1.51"></path><path d="M1203,918L1242,731L1093,747Z" fill="rgb(171,171,171)" stroke="rgb(171,171,171)" stroke-width="1.51"></path><path d="M594,297L492,428L674,415Z" fill="rgb(90,90,90)" stroke="rgb(90,90,90)" stroke-width="1.51"></path><path d="M402,682L429,718L561,709Z" fill="rgb(120,120,120)" stroke="rgb(120,120,120)" stroke-width="1.51"></path><path d="M561,709L643,999L788,714Z" fill="rgb(136,136,136)" stroke="rgb(136,136,136)" stroke-width="1.51"></path><path d="M913,280L854,166L686,291Z" fill="rgb(95,95,95)" stroke="rgb(95,95,95)" stroke-width="1.51"></path><path d="M1099,373L1003,238L913,280Z" fill="rgb(111,111,111)" stroke="rgb(111,111,111)" stroke-width="1.51"></path><path d="M1208,219L1003,238L1099,373Z" fill="rgb(118,118,118)" stroke="rgb(118,118,118)" stroke-width="1.51"></path><path d="M722,164L594,297L686,291Z" fill="rgb(88,88,88)" stroke="rgb(88,88,88)" stroke-width="1.51"></path><path d="M686,291L594,297L674,415Z" fill="rgb(90,90,90)" stroke="rgb(90,90,90)" stroke-width="1.51"></path><path d="M492,428L443,520L525,531Z" fill="rgb(96,96,96)" stroke="rgb(96,96,96)" stroke-width="1.51"></path><path d="M561,709L591,982L643,999Z" fill="rgb(145,145,145)" stroke="rgb(145,145,145)" stroke-width="1.51"></path><path d="M402,682L561,709L525,531Z" fill="rgb(113,113,113)" stroke="rgb(113,113,113)" stroke-width="1.51"></path><path d="M433,928L591,982L561,709Z" fill="rgb(140,140,140)" stroke="rgb(140,140,140)" stroke-width="1.51"></path><path d="M1041,974L1203,918L1093,747Z" fill="rgb(176,176,176)" stroke="rgb(176,176,176)" stroke-width="1.51"></path><path d="M429,718L433,928L561,709Z" fill="rgb(129,129,129)" stroke="rgb(129,129,129)" stroke-width="1.51"></path><path d="M443,520L402,682L525,531Z" fill="rgb(105,105,105)" stroke="rgb(105,105,105)" stroke-width="1.51"></path><path d="M976,166L854,166L913,280Z" fill="rgb(98,98,98)" stroke="rgb(98,98,98)" stroke-width="1.51"></path><path d="M1003,238L976,166L913,280Z" fill="rgb(105,105,105)" stroke="rgb(105,105,105)" stroke-width="1.51"></path><path d="M1208,219L976,166L1003,238Z" fill="rgb(109,109,109)" stroke="rgb(109,109,109)" stroke-width="1.51"></path><path d="M931,999L924,1117L1041,974Z" fill="rgb(167,167,167)" stroke="rgb(167,167,167)" stroke-width="1.51"></path><path d="M1041,974L1122,1096L1203,918Z" fill="rgb(179,179,179)" stroke="rgb(179,179,179)" stroke-width="1.51"></path><path d="M655,1100L924,1117L931,999Z" fill="rgb(157,157,157)" stroke="rgb(157,157,157)" stroke-width="1.51"></path><path d="M655,1100L931,999L643,999Z" fill="rgb(149,149,149)" stroke="rgb(149,149,149)" stroke-width="1.51"></path><path d="M854,166L722,164L686,291Z" fill="rgb(87,87,87)" stroke="rgb(87,87,87)" stroke-width="1.51"></path><path d="M830,35L722,164L854,166Z" fill="rgb(77,77,77)" stroke="rgb(77,77,77)" stroke-width="1.51"></path><path d="M591,982L655,1100L643,999Z" fill="rgb(146,146,146)" stroke="rgb(146,146,146)" stroke-width="1.51"></path><path d="M620,1143L655,1100L591,982Z" fill="rgb(146,146,146)" stroke="rgb(146,146,146)" stroke-width="1.51"></path><path d="M1219,594L1383,451L1164,415Z" fill="rgb(139,139,139)" stroke="rgb(139,139,139)" stroke-width="1.51"></path><path d="M1164,415L1208,219L1099,373Z" fill="rgb(124,124,124)" stroke="rgb(124,124,124)" stroke-width="1.51"></path><path d="M1242,731L1369,576L1219,594Z" fill="rgb(159,159,159)" stroke="rgb(159,159,159)" stroke-width="1.51"></path><path d="M1388,778L1369,576L1242,731Z" fill="rgb(171,171,171)" stroke="rgb(171,171,171)" stroke-width="1.51"></path><path d="M251,787L433,928L429,718Z" fill="rgb(129,129,129)" stroke="rgb(129,129,129)" stroke-width="1.51"></path><path d="M1203,918L1297,949L1242,731Z" fill="rgb(184,184,184)" stroke="rgb(184,184,184)" stroke-width="1.51"></path><path d="M1109,1107L1122,1096L1041,974Z" fill="rgb(177,177,177)" stroke="rgb(177,177,177)" stroke-width="1.51"></path><path d="M924,1117L1109,1107L1041,974Z" fill="rgb(171,171,171)" stroke="rgb(171,171,171)" stroke-width="1.51"></path><path d="M1346,1090L1297,949L1122,1096Z" fill="rgb(189,189,189)" stroke="rgb(189,189,189)" stroke-width="1.51"></path><path d="M1122,1096L1297,949L1203,918Z" fill="rgb(185,185,185)" stroke="rgb(185,185,185)" stroke-width="1.51"></path><path d="M1396,268L1208,219L1164,415Z" fill="rgb(129,129,129)" stroke="rgb(129,129,129)" stroke-width="1.51"></path><path d="M1297,949L1388,778L1242,731Z" fill="rgb(183,183,183)" stroke="rgb(183,183,183)" stroke-width="1.51"></path><path d="M1369,576L1383,451L1219,594Z" fill="rgb(151,151,151)" stroke="rgb(151,151,151)" stroke-width="1.51"></path><path d="M1468,419L1383,451L1508,598Z" fill="rgb(153,153,153)" stroke="rgb(153,153,153)" stroke-width="1.51"></path><path d="M802,1288L957,1193L924,1117Z" fill="rgb(162,162,162)" stroke="rgb(162,162,162)" stroke-width="1.51"></path><path d="M924,1117L957,1193L1109,1107Z" fill="rgb(169,169,169)" stroke="rgb(169,169,169)" stroke-width="1.51"></path><path d="M326,1136L620,1143L591,982Z" fill="rgb(143,143,143)" stroke="rgb(143,143,143)" stroke-width="1.51"></path><path d="M673,1217L924,1117L655,1100Z" fill="rgb(150,150,150)" stroke="rgb(150,150,150)" stroke-width="1.51"></path><path d="M492,428L276,523L443,520Z" fill="rgb(93,93,93)" stroke="rgb(93,93,93)" stroke-width="1.51"></path><path d="M443,520L276,523L402,682Z" fill="rgb(103,103,103)" stroke="rgb(103,103,103)" stroke-width="1.51"></path><path d="M594,297L427,254L492,428Z" fill="rgb(86,86,86)" stroke="rgb(86,86,86)" stroke-width="1.51"></path><path d="M511,134L427,254L594,297Z" fill="rgb(83,83,83)" stroke="rgb(83,83,83)" stroke-width="1.51"></path><path d="M427,254L276,523L492,428Z" fill="rgb(87,87,87)" stroke="rgb(87,87,87)" stroke-width="1.51"></path><path d="M402,682L251,787L429,718Z" fill="rgb(120,120,120)" stroke="rgb(120,120,120)" stroke-width="1.51"></path><path d="M722,164L511,134L594,297Z" fill="rgb(81,81,81)" stroke="rgb(81,81,81)" stroke-width="1.51"></path><path d="M976,166L830,35L854,166Z" fill="rgb(83,83,83)" stroke="rgb(83,83,83)" stroke-width="1.51"></path><path d="M976,-33L830,35L976,166Z" fill="rgb(75,75,75)" stroke="rgb(75,75,75)" stroke-width="1.51"></path><path d="M276,523L250,594L402,682Z" fill="rgb(100,100,100)" stroke="rgb(100,100,100)" stroke-width="1.51"></path><path d="M545,24L511,134L722,164Z" fill="rgb(66,66,66)" stroke="rgb(66,66,66)" stroke-width="1.51"></path><path d="M620,1143L673,1217L655,1100Z" fill="rgb(146,146,146)" stroke="rgb(146,146,146)" stroke-width="1.51"></path><path d="M550,1246L673,1217L620,1143Z" fill="rgb(145,145,145)" stroke="rgb(145,145,145)" stroke-width="1.51"></path><path d="M250,594L251,787L402,682Z" fill="rgb(109,109,109)" stroke="rgb(109,109,109)" stroke-width="1.51"></path><path d="M326,1136L550,1246L620,1143Z" fill="rgb(142,142,142)" stroke="rgb(142,142,142)" stroke-width="1.51"></path><path d="M1383,451L1396,268L1164,415Z" fill="rgb(136,136,136)" stroke="rgb(136,136,136)" stroke-width="1.51"></path><path d="M1508,598L1383,451L1369,576Z" fill="rgb(157,157,157)" stroke="rgb(157,157,157)" stroke-width="1.51"></path><path d="M1546,759L1508,598L1388,778Z" fill="rgb(180,180,180)" stroke="rgb(180,180,180)" stroke-width="1.51"></path><path d="M1388,778L1508,598L1369,576Z" fill="rgb(172,172,172)" stroke="rgb(172,172,172)" stroke-width="1.51"></path><path d="M1217,-44L976,-33L976,166Z" fill="rgb(80,80,80)" stroke="rgb(80,80,80)" stroke-width="1.51"></path><path d="M1468,419L1396,268L1383,451Z" fill="rgb(143,143,143)" stroke="rgb(143,143,143)" stroke-width="1.51"></path><path d="M673,1217L802,1288L924,1117Z" fill="rgb(154,154,154)" stroke="rgb(154,154,154)" stroke-width="1.51"></path><path d="M1207,1238L1122,1096L1109,1107Z" fill="rgb(181,181,181)" stroke="rgb(181,181,181)" stroke-width="1.51"></path><path d="M1537,887L1546,759L1388,778Z" fill="rgb(192,192,192)" stroke="rgb(192,192,192)" stroke-width="1.51"></path><path d="M1207,1238L1346,1090L1122,1096Z" fill="rgb(187,187,187)" stroke="rgb(187,187,187)" stroke-width="1.51"></path><path d="M1207,1238L1109,1107L957,1193Z" fill="rgb(177,177,177)" stroke="rgb(177,177,177)" stroke-width="1.51"></path><path d="M830,35L706,-23L722,164Z" fill="rgb(64,64,64)" stroke="rgb(64,64,64)" stroke-width="1.51"></path><path d="M929,-242L706,-23L830,35Z" fill="rgb(59,59,59)" stroke="rgb(59,59,59)" stroke-width="1.51"></path><path d="M1266,83L976,166L1208,219Z" fill="rgb(107,107,107)" stroke="rgb(107,107,107)" stroke-width="1.51"></path><path d="M326,1136L591,982L433,928Z" fill="rgb(141,141,141)" stroke="rgb(141,141,141)" stroke-width="1.51"></path><path d="M673,1217L550,1246L802,1288Z" fill="rgb(147,147,147)" stroke="rgb(147,147,147)" stroke-width="1.51"></path><path d="M511,134L332,150L427,254Z" fill="rgb(74,74,74)" stroke="rgb(74,74,74)" stroke-width="1.51"></path><path d="M427,254L250,240L276,523Z" fill="rgb(80,80,80)" stroke="rgb(80,80,80)" stroke-width="1.51"></path><path d="M706,-23L545,24L722,164Z" fill="rgb(60,60,60)" stroke="rgb(60,60,60)" stroke-width="1.51"></path><path d="M1316,118L1266,83L1208,219Z" fill="rgb(112,112,112)" stroke="rgb(112,112,112)" stroke-width="1.51"></path><path d="M1396,268L1316,118L1208,219Z" fill="rgb(126,126,126)" stroke="rgb(126,126,126)" stroke-width="1.51"></path><path d="M802,1288L1207,1238L957,1193Z" fill="rgb(169,169,169)" stroke="rgb(169,169,169)" stroke-width="1.51"></path><path d="M1537,887L1388,778L1297,949Z" fill="rgb(197,197,197)" stroke="rgb(197,197,197)" stroke-width="1.51"></path><path d="M1599,297L1484,217L1468,419Z" fill="rgb(142,142,142)" stroke="rgb(142,142,142)" stroke-width="1.51"></path><path d="M161,924L252,992L251,787Z" fill="rgb(124,124,124)" stroke="rgb(124,124,124)" stroke-width="1.51"></path><path d="M251,787L252,992L433,928Z" fill="rgb(133,133,133)" stroke="rgb(133,133,133)" stroke-width="1.51"></path><path d="M389,0L332,150L511,134Z" fill="rgb(60,60,60)" stroke="rgb(60,60,60)" stroke-width="1.51"></path><path d="M276,523L158,410L250,594Z" fill="rgb(81,81,81)" stroke="rgb(81,81,81)" stroke-width="1.51"></path><path d="M1433,1117L1297,949L1346,1090Z" fill="rgb(197,197,197)" stroke="rgb(197,197,197)" stroke-width="1.51"></path><path d="M1433,1117L1537,887L1297,949Z" fill="rgb(201,201,201)" stroke="rgb(201,201,201)" stroke-width="1.51"></path><path d="M265,194L250,240L427,254Z" fill="rgb(75,75,75)" stroke="rgb(75,75,75)" stroke-width="1.51"></path><path d="M252,992L326,1136L433,928Z" fill="rgb(136,136,136)" stroke="rgb(136,136,136)" stroke-width="1.51"></path><path d="M250,594L121,652L251,787Z" fill="rgb(98,98,98)" stroke="rgb(98,98,98)" stroke-width="1.51"></path><path d="M250,240L158,410L276,523Z" fill="rgb(73,73,73)" stroke="rgb(73,73,73)" stroke-width="1.51"></path><path d="M158,410L121,652L250,594Z" fill="rgb(81,81,81)" stroke="rgb(81,81,81)" stroke-width="1.51"></path><path d="M250,240L88,327L158,410Z" fill="rgb(64,64,64)" stroke="rgb(64,64,64)" stroke-width="1.51"></path><path d="M332,150L265,194L427,254Z" fill="rgb(74,74,74)" stroke="rgb(74,74,74)" stroke-width="1.51"></path><path d="M1433,1269L1433,1117L1346,1090Z" fill="rgb(200,200,200)" stroke="rgb(200,200,200)" stroke-width="1.51"></path><path d="M1396,268L1484,217L1316,118Z" fill="rgb(132,132,132)" stroke="rgb(132,132,132)" stroke-width="1.51"></path><path d="M1381,5L1217,-44L1266,83Z" fill="rgb(93,93,93)" stroke="rgb(93,93,93)" stroke-width="1.51"></path><path d="M1468,419L1484,217L1396,268Z" fill="rgb(142,142,142)" stroke="rgb(142,142,142)" stroke-width="1.51"></path><path d="M1656,445L1468,419L1508,598Z" fill="rgb(153,153,153)" stroke="rgb(153,153,153)" stroke-width="1.51"></path><path d="M45,690L161,924L251,787Z" fill="rgb(105,105,105)" stroke="rgb(105,105,105)" stroke-width="1.51"></path><path d="M252,992L200,1023L326,1136Z" fill="rgb(128,128,128)" stroke="rgb(128,128,128)" stroke-width="1.51"></path><path d="M161,924L200,1023L252,992Z" fill="rgb(122,122,122)" stroke="rgb(122,122,122)" stroke-width="1.51"></path><path d="M1381,5L1266,83L1316,118Z" fill="rgb(104,104,104)" stroke="rgb(104,104,104)" stroke-width="1.51"></path><path d="M1266,83L1217,-44L976,166Z" fill="rgb(93,93,93)" stroke="rgb(93,93,93)" stroke-width="1.51"></path><path d="M724,-250L625,-209L706,-23Z" fill="rgb(52,52,52)" stroke="rgb(52,52,52)" stroke-width="1.51"></path><path d="M1546,759L1656,617L1508,598Z" fill="rgb(174,174,174)" stroke="rgb(174,174,174)" stroke-width="1.51"></path><path d="M1537,887L1625,758L1546,759Z" fill="rgb(191,191,191)" stroke="rgb(191,191,191)" stroke-width="1.51"></path><path d="M1738,969L1625,758L1537,887Z" fill="rgb(199,199,199)" stroke="rgb(199,199,199)" stroke-width="1.51"></path><path d="M332,150L182,-27L265,194Z" fill="rgb(51,51,51)" stroke="rgb(51,51,51)" stroke-width="1.51"></path><path d="M545,24L389,0L511,134Z" fill="rgb(55,55,55)" stroke="rgb(55,55,55)" stroke-width="1.51"></path><path d="M625,-209L389,0L545,24Z" fill="rgb(49,49,49)" stroke="rgb(49,49,49)" stroke-width="1.51"></path><path d="M1217,-44L1095,-118L976,-33Z" fill="rgb(78,78,78)" stroke="rgb(78,78,78)" stroke-width="1.51"></path><path d="M706,-23L625,-209L545,24Z" fill="rgb(51,51,51)" stroke="rgb(51,51,51)" stroke-width="1.51"></path><path d="M1625,758L1656,617L1546,759Z" fill="rgb(180,180,180)" stroke="rgb(180,180,180)" stroke-width="1.51"></path><path d="M161,924L135,1092L200,1023Z" fill="rgb(118,118,118)" stroke="rgb(118,118,118)" stroke-width="1.51"></path><path d="M121,652L45,690L251,787Z" fill="rgb(95,95,95)" stroke="rgb(95,95,95)" stroke-width="1.51"></path><path d="M-108,440L45,690L121,652Z" fill="rgb(70,70,70)" stroke="rgb(70,70,70)" stroke-width="1.51"></path><path d="M1656,445L1599,297L1468,419Z" fill="rgb(145,145,145)" stroke="rgb(145,145,145)" stroke-width="1.51"></path><path d="M1484,217L1381,5L1316,118Z" fill="rgb(117,117,117)" stroke="rgb(117,117,117)" stroke-width="1.51"></path><path d="M172,1273L346,1271L326,1136Z" fill="rgb(131,131,131)" stroke="rgb(131,131,131)" stroke-width="1.51"></path><path d="M326,1136L346,1271L550,1246Z" fill="rgb(140,140,140)" stroke="rgb(140,140,140)" stroke-width="1.51"></path><path d="M550,1246L346,1271L802,1288Z" fill="rgb(144,144,144)" stroke="rgb(144,144,144)" stroke-width="1.51"></path><path d="M1217,-44L1228,-262L1095,-118Z" fill="rgb(83,83,83)" stroke="rgb(83,83,83)" stroke-width="1.51"></path><path d="M1542,59L1381,5L1484,217Z" fill="rgb(116,116,116)" stroke="rgb(116,116,116)" stroke-width="1.51"></path><path d="M1656,617L1656,445L1508,598Z" fill="rgb(161,161,161)" stroke="rgb(161,161,161)" stroke-width="1.51"></path><path d="M158,410L-108,440L121,652Z" fill="rgb(64,64,64)" stroke="rgb(64,64,64)" stroke-width="1.51"></path><path d="M101,59L88,327L250,240Z" fill="rgb(57,57,57)" stroke="rgb(57,57,57)" stroke-width="1.51"></path><path d="M-14,289L88,327L101,59Z" fill="rgb(51,51,51)" stroke="rgb(51,51,51)" stroke-width="1.51"></path><path d="M1433,1117L1602,1156L1537,887Z" fill="rgb(203,203,203)" stroke="rgb(203,203,203)" stroke-width="1.51"></path><path d="M1207,1238L1354,1320L1346,1090Z" fill="rgb(192,192,192)" stroke="rgb(192,192,192)" stroke-width="1.51"></path><path d="M802,1288L1354,1320L1207,1238Z" fill="rgb(179,179,179)" stroke="rgb(179,179,179)" stroke-width="1.51"></path><path d="M106,1311L1354,1320L802,1288Z" fill="rgb(150,150,150)" stroke="rgb(150,150,150)" stroke-width="1.51"></path><path d="M-7,1058L135,1092L161,924Z" fill="rgb(111,111,111)" stroke="rgb(111,111,111)" stroke-width="1.51"></path><path d="M200,1023L135,1092L326,1136Z" fill="rgb(124,124,124)" stroke="rgb(124,124,124)" stroke-width="1.51"></path><path d="M1354,1320L1433,1269L1346,1090Z" fill="rgb(198,198,198)" stroke="rgb(198,198,198)" stroke-width="1.51"></path><path d="M929,-242L830,35L976,-33Z" fill="rgb(65,65,65)" stroke="rgb(65,65,65)" stroke-width="1.51"></path><path d="M1095,-118L929,-242L976,-33Z" fill="rgb(72,72,72)" stroke="rgb(72,72,72)" stroke-width="1.51"></path><path d="M1228,-262L929,-242L1095,-118Z" fill="rgb(77,77,77)" stroke="rgb(77,77,77)" stroke-width="1.51"></path><path d="M1386,-229L1228,-262L1217,-44Z" fill="rgb(90,90,90)" stroke="rgb(90,90,90)" stroke-width="1.51"></path><path d="M1599,297L1542,59L1484,217Z" fill="rgb(133,133,133)" stroke="rgb(133,133,133)" stroke-width="1.51"></path><path d="M1725,140L1542,59L1599,297Z" fill="rgb(128,128,128)" stroke="rgb(128,128,128)" stroke-width="1.51"></path><path d="M929,-242L724,-250L706,-23Z" fill="rgb(57,57,57)" stroke="rgb(57,57,57)" stroke-width="1.51"></path><path d="M1433,1269L1602,1156L1433,1117Z" fill="rgb(203,203,203)" stroke="rgb(203,203,203)" stroke-width="1.51"></path><path d="M1625,758L1738,969L1656,617Z" fill="rgb(189,189,189)" stroke="rgb(189,189,189)" stroke-width="1.51"></path><path d="M45,690L-55,819L161,924Z" fill="rgb(96,96,96)" stroke="rgb(96,96,96)" stroke-width="1.51"></path><path d="M-186,675L-55,819L45,690Z" fill="rgb(82,82,82)" stroke="rgb(82,82,82)" stroke-width="1.51"></path><path d="M135,1092L172,1273L326,1136Z" fill="rgb(123,123,123)" stroke="rgb(123,123,123)" stroke-width="1.51"></path><path d="M346,1271L106,1311L802,1288Z" fill="rgb(141,141,141)" stroke="rgb(141,141,141)" stroke-width="1.51"></path><path d="M106,1311L172,1273L135,1092Z" fill="rgb(115,115,115)" stroke="rgb(115,115,115)" stroke-width="1.51"></path><path d="M88,327L-108,440L158,410Z" fill="rgb(55,55,55)" stroke="rgb(55,55,55)" stroke-width="1.51"></path><path d="M101,59L250,240L265,194Z" fill="rgb(55,55,55)" stroke="rgb(55,55,55)" stroke-width="1.51"></path><path d="M182,-27L332,150L389,0Z" fill="rgb(46,46,46)" stroke="rgb(46,46,46)" stroke-width="1.51"></path><path d="M1602,1156L1738,969L1537,887Z" fill="rgb(203,203,203)" stroke="rgb(203,203,203)" stroke-width="1.51"></path><path d="M1656,617L1725,140L1656,445Z" fill="rgb(146,146,146)" stroke="rgb(146,146,146)" stroke-width="1.51"></path><path d="M243,-251L182,-27L389,0Z" fill="rgb(38,38,38)" stroke="rgb(38,38,38)" stroke-width="1.51"></path><path d="M371,-246L389,0L625,-209Z" fill="rgb(47,47,47)" stroke="rgb(47,47,47)" stroke-width="1.51"></path><path d="M182,-27L101,59L265,194Z" fill="rgb(40,40,40)" stroke="rgb(40,40,40)" stroke-width="1.51"></path><path d="M-55,819L-63,876L161,924Z" fill="rgb(99,99,99)" stroke="rgb(99,99,99)" stroke-width="1.51"></path><path d="M-275,918L-63,876L-303,795Z" fill="rgb(96,96,96)" stroke="rgb(96,96,96)" stroke-width="1.51"></path><path d="M1542,59L1502,-66L1381,5Z" fill="rgb(100,100,100)" stroke="rgb(100,100,100)" stroke-width="1.51"></path><path d="M-63,876L-7,1058L161,924Z" fill="rgb(103,103,103)" stroke="rgb(103,103,103)" stroke-width="1.51"></path><path d="M1602,1156L1595,1266L1738,969Z" fill="rgb(203,203,203)" stroke="rgb(203,203,203)" stroke-width="1.51"></path><path d="M1433,1269L1595,1266L1602,1156Z" fill="rgb(203,203,203)" stroke="rgb(203,203,203)" stroke-width="1.51"></path><path d="M1354,1320L1595,1266L1433,1269Z" fill="rgb(203,203,203)" stroke="rgb(203,203,203)" stroke-width="1.51"></path><path d="M929,-242L1228,-262L724,-250Z" fill="rgb(69,69,69)" stroke="rgb(69,69,69)" stroke-width="1.51"></path><path d="M1386,-229L1217,-44L1381,5Z" fill="rgb(93,93,93)" stroke="rgb(93,93,93)" stroke-width="1.51"></path><path d="M-14,289L-108,440L88,327Z" fill="rgb(50,50,50)" stroke="rgb(50,50,50)" stroke-width="1.51"></path><path d="M-227,496L-108,440L-243,240Z" fill="rgb(51,51,51)" stroke="rgb(51,51,51)" stroke-width="1.51"></path><path d="M1738,969L1725,140L1656,617Z" fill="rgb(164,164,164)" stroke="rgb(164,164,164)" stroke-width="1.51"></path><path d="M1656,445L1725,140L1599,297Z" fill="rgb(142,142,142)" stroke="rgb(142,142,142)" stroke-width="1.51"></path><path d="M1542,59L1747,48L1502,-66Z" fill="rgb(102,102,102)" stroke="rgb(102,102,102)" stroke-width="1.51"></path><path d="M101,59L-34,64L-14,289Z" fill="rgb(34,34,34)" stroke="rgb(34,34,34)" stroke-width="1.51"></path><path d="M182,-27L59,28L101,59Z" fill="rgb(27,27,27)" stroke="rgb(27,27,27)" stroke-width="1.51"></path><path d="M-108,440L-142,538L45,690Z" fill="rgb(64,64,64)" stroke="rgb(64,64,64)" stroke-width="1.51"></path><path d="M25,-130L-45,-42L59,28Z" fill="rgb(14,14,14)" stroke="rgb(14,14,14)" stroke-width="1.51"></path><path d="M724,-250L371,-246L625,-209Z" fill="rgb(50,50,50)" stroke="rgb(50,50,50)" stroke-width="1.51"></path><path d="M243,-251L371,-246L724,-250Z" fill="rgb(47,47,47)" stroke="rgb(47,47,47)" stroke-width="1.51"></path><path d="M172,1273L106,1311L346,1271Z" fill="rgb(123,123,123)" stroke="rgb(123,123,123)" stroke-width="1.51"></path><path d="M-7,1058L106,1311L135,1092Z" fill="rgb(108,108,108)" stroke="rgb(108,108,108)" stroke-width="1.51"></path><path d="M1449,-209L1381,5L1502,-66Z" fill="rgb(100,100,100)" stroke="rgb(100,100,100)" stroke-width="1.51"></path><path d="M1449,-209L1386,-229L1381,5Z" fill="rgb(98,98,98)" stroke="rgb(98,98,98)" stroke-width="1.51"></path><path d="M1700,-246L1449,-209L1502,-66Z" fill="rgb(100,100,100)" stroke="rgb(100,100,100)" stroke-width="1.51"></path><path d="M-7,1058L-136,1162L106,1311Z" fill="rgb(100,100,100)" stroke="rgb(100,100,100)" stroke-width="1.51"></path><path d="M-283,1015L-136,1162L-7,1058Z" fill="rgb(100,100,100)" stroke="rgb(100,100,100)" stroke-width="1.51"></path><path d="M-142,538L-186,675L45,690Z" fill="rgb(72,72,72)" stroke="rgb(72,72,72)" stroke-width="1.51"></path><path d="M-45,-42L-34,64L59,28Z" fill="rgb(15,15,15)" stroke="rgb(15,15,15)" stroke-width="1.51"></path><path d="M59,28L-34,64L101,59Z" fill="rgb(25,25,25)" stroke="rgb(25,25,25)" stroke-width="1.51"></path><path d="M-108,440L-227,496L-142,538Z" fill="rgb(57,57,57)" stroke="rgb(57,57,57)" stroke-width="1.51"></path><path d="M-142,538L-227,496L-186,675Z" fill="rgb(65,65,65)" stroke="rgb(65,65,65)" stroke-width="1.51"></path><path d="M1725,140L1747,48L1542,59Z" fill="rgb(114,114,114)" stroke="rgb(114,114,114)" stroke-width="1.51"></path><path d="M1738,969L1747,48L1725,140Z" fill="rgb(145,145,145)" stroke="rgb(145,145,145)" stroke-width="1.51"></path><path d="M371,-246L243,-251L389,0Z" fill="rgb(43,43,43)" stroke="rgb(43,43,43)" stroke-width="1.51"></path><path d="M1228,-262L243,-251L724,-250Z" fill="rgb(54,54,54)" stroke="rgb(54,54,54)" stroke-width="1.51"></path><path d="M-243,240L-108,440L-14,289Z" fill="rgb(49,49,49)" stroke="rgb(49,49,49)" stroke-width="1.51"></path><path d="M-7,1058L-63,876L-283,1015Z" fill="rgb(100,100,100)" stroke="rgb(100,100,100)" stroke-width="1.51"></path><path d="M-160,1175L-136,1162L-283,1015Z" fill="rgb(100,100,100)" stroke="rgb(100,100,100)" stroke-width="1.51"></path><path d="M-34,64L-243,240L-14,289Z" fill="rgb(41,41,41)" stroke="rgb(41,41,41)" stroke-width="1.51"></path><path d="M25,-130L59,28L182,-27Z" fill="rgb(22,22,22)" stroke="rgb(22,22,22)" stroke-width="1.51"></path><path d="M243,-251L25,-130L182,-27Z" fill="rgb(27,27,27)" stroke="rgb(27,27,27)" stroke-width="1.51"></path><path d="M-136,1162L-160,1175L106,1311Z" fill="rgb(100,100,100)" stroke="rgb(100,100,100)" stroke-width="1.51"></path><path d="M-63,876L-55,819L-303,795Z" fill="rgb(93,93,93)" stroke="rgb(93,93,93)" stroke-width="1.51"></path><path d="M-303,795L-55,819L-186,675Z" fill="rgb(86,86,86)" stroke="rgb(86,86,86)" stroke-width="1.51"></path><path d="M-227,496L-303,795L-186,675Z" fill="rgb(75,75,75)" stroke="rgb(75,75,75)" stroke-width="1.51"></path><path d="M-255,130L-243,240L-34,64Z" fill="rgb(34,34,34)" stroke="rgb(34,34,34)" stroke-width="1.51"></path><path d="M-243,240L-303,795L-227,496Z" fill="rgb(59,59,59)" stroke="rgb(59,59,59)" stroke-width="1.51"></path><path d="M-303,795L-283,1015L-275,918Z" fill="rgb(100,100,100)" stroke="rgb(100,100,100)" stroke-width="1.51"></path><path d="M-275,918L-283,1015L-63,876Z" fill="rgb(100,100,100)" stroke="rgb(100,100,100)" stroke-width="1.51"></path><path d="M1747,48L1700,-246L1502,-66Z" fill="rgb(100,100,100)" stroke="rgb(100,100,100)" stroke-width="1.51"></path><path d="M1449,-209L1700,-246L1386,-229Z" fill="rgb(100,100,100)" stroke="rgb(100,100,100)" stroke-width="1.51"></path><path d="M1386,-229L1700,-246L1228,-262Z" fill="rgb(100,100,100)" stroke="rgb(100,100,100)" stroke-width="1.51"></path><path d="M-243,240L-255,130L-303,795Z" fill="rgb(51,51,51)" stroke="rgb(51,51,51)" stroke-width="1.51"></path><path d="M-286,-29L-255,130L-34,64Z" fill="rgb(22,22,22)" stroke="rgb(22,22,22)" stroke-width="1.51"></path><path d="M-286,-29L-34,64L-45,-42Z" fill="rgb(12,12,12)" stroke="rgb(12,12,12)" stroke-width="1.51"></path><path d="M25,-130L-24,-231L-45,-42Z" fill="rgb(12,12,12)" stroke="rgb(12,12,12)" stroke-width="1.51"></path><path d="M243,-251L-24,-231L25,-130Z" fill="rgb(21,21,21)" stroke="rgb(21,21,21)" stroke-width="1.51"></path><path d="M-188,-230L-286,-29L-45,-42Z" fill="rgb(12,12,12)" stroke="rgb(12,12,12)" stroke-width="1.51"></path><path d="M-255,130L-286,-29L-303,795Z" fill="rgb(48,48,48)" stroke="rgb(48,48,48)" stroke-width="1.51"></path><path d="M-24,-231L-188,-230L-45,-42Z" fill="rgb(12,12,12)" stroke="rgb(12,12,12)" stroke-width="1.51"></path><path d="M243,-251L-188,-230L-24,-231Z" fill="rgb(14,14,14)" stroke="rgb(14,14,14)" stroke-width="1.51"></path></svg>